# xmcd
#
# Track frame offsets:
#	150
#	10866
#	20691
#	34217
#	47230
#	66303
#	82576
#	94314
#	110887
#	122387
#	138018
#	154168
#
# Disc length: 2197 seconds
#
# Revision: 0
# Processed by: cddbd v1.5.1PL2 Copyright (c) Steve Scherf et al.
# Submitted via: dBpowerAMP V4.0
#
DISCID=9708930c
DTITLE=Tião do Carro e Zé Matão - Cheiro de Terra
DYEAR=1900
DGENRE=Sertanejo Raiz
TTITLE0=Remédio Para a Alma
TTITLE1=Retrato de um Sonho
TTITLE2=Todinha pra Mim
TTITLE3=Cheiro de Terra
TTITLE4=Pedro Chiquito
TTITLE5=Guerra de Nervo
TTITLE6=Hora Sublime
TTITLE7=Fardo de Dor
TTITLE8=Vida Boa
TTITLE9=Fronha Branca
TTITLE10=Rainha das Fêmeas
TTITLE11=Os Três Poetas
EXTD=
EXTT0=
EXTT1=
EXTT2=
EXTT3=
EXTT4=
EXTT5=
EXTT6=
EXTT7=
EXTT8=
EXTT9=
EXTT10=
EXTT11=
PLAYORDER=
